<?xml version="1.0" encoding="UTF-8" standalone="no"?>
<svg
   xmlns:dc="http://purl.org/dc/elements/1.1/"
   xmlns:cc="http://creativecommons.org/ns#"
   xmlns:rdf="http://www.w3.org/1999/02/22-rdf-syntax-ns#"
   xmlns:svg="http://www.w3.org/2000/svg"
   xmlns="http://www.w3.org/2000/svg"
   xmlns:sodipodi="http://sodipodi.sourceforge.net/DTD/sodipodi-0.dtd"
   xmlns:inkscape="http://www.inkscape.org/namespaces/inkscape"
   id="Layer_1"
   data-name="Layer 1"
   viewBox="0 0 201.88 286.34"
   version="1.1"
   sodipodi:docname="Fav Icon (stretched + bold).svg"
   inkscape:version="0.92.3 (2405546, 2018-03-11)">
  <metadata
     id="metadata13">
    <rdf:RDF>
      <cc:Work
         rdf:about="">
        <dc:format>image/svg+xml</dc:format>
        <dc:type
           rdf:resource="http://purl.org/dc/dcmitype/StillImage" />
        <dc:title>Fav Icon (stretched + bold)</dc:title>
      </cc:Work>
    </rdf:RDF>
  </metadata>
  <sodipodi:namedview
     pagecolor="#ffffff"
     bordercolor="#666666"
     borderopacity="1"
     objecttolerance="10"
     gridtolerance="10"
     guidetolerance="10"
     inkscape:pageopacity="0"
     inkscape:pageshadow="2"
     inkscape:window-width="1386"
     inkscape:window-height="718"
     id="namedview11"
     showgrid="false"
     inkscape:zoom="0.82419502"
     inkscape:cx="-158.70728"
     inkscape:cy="143.17"
     inkscape:window-x="1172"
     inkscape:window-y="0"
     inkscape:window-maximized="0"
     inkscape:current-layer="Layer_1" />
  <defs
     id="defs4">
    <style
       id="style2">
      .cls-1 {
        fill: #00a79d;
        stroke: #00a79d;
        stroke-miterlimit: 10;
        stroke-width: 19.15px;
      }
    </style>
  </defs>
  <title
     id="title6">Fav Icon (stretched + bold)</title>
  <path
     class="cls-1"
     d="M211.11,37.05c-3,3.92-5.62,7.92-8.13,11.81-3.6,5.55-7,10.79-11.11,15-10,10.32-25.54,16.63-50.4,20.44l-3.12.47c-6.75,1-13.74,2-20.81,4.34a65.71,65.71,0,0,0-39.86,37.26c-.06.13-.12.25-.17.38-6.24,14.11-4.64,33.41-4.64,33.41h0L72,271.31c9.64,4.8,27,11.95,52.46,7.9,40.61-6.44,59.11-38.47,51.67-67.22-4.87-18.82-22.3-29.33-46-25.57-15.13,2.4-27.42,12.78-34.53,24.87L96,151.84h0l.18-3.94c2.32-15.7,14.48-32.75,29.08-37.51,5-1.62,10.57-2.45,16.51-3.33l3.23-.49c19.14-2.93,46.69-9,64.92-27.83,5.7-5.88,9.88-12.32,13.93-18.56,2.38-3.67,4.63-7.12,7.07-10.31,2.88-3.76,10.53-12.52,19.14-12.73l3.25-23.63C239.15,13.87,222,22.93,211.11,37.05ZM95.24,251.4c0-18.34,5.92-43.1,31.9-47.22,14.38-2.29,23,3.52,25.74,14.25,5,19.43-7.11,40.54-31.57,44.43C111,264.49,102.43,264,95,260.5,95,260.5,95.27,254.56,95.24,251.4Z"
     transform="translate(-62.41 -3.64)"
     id="path8"
     style="fill:#7b68ee;fill-opacity:1;stroke:#7b68ee;stroke-opacity:1"
     inkscape:export-xdpi="20.860001"
     inkscape:export-ydpi="20.860001" />
</svg>
